# xmcd
#
# Track frame offsets: 
#        150
#        22557
#        41985
#        60105
#        80082
#        99855
#        114075
#        131435
#        150845
#        169660
#        190905
#        214022
#
# Disc length: 3092 seconds
#
# Revision: 0
# Processed by: cddbd v1.5.1PL0 Copyright (c) Steve Scherf et al.
# Submitted via: ExactAudioCopy v0.95a5
#
DISCID=810c120c
DTITLE=Hideaki Tokunaga - Melodies of Hideaki Tokunaga
DYEAR=1993
DGENRE=JPop
TTITLE0=Kowarekake No Radio
TTITLE1=Lovers
TTITLE2=Kaze No Eoria
TTITLE3=Yume Wo Shinjite
TTITLE4=Saigo No Iiwake
TTITLE5=Birds
TTITLE6=Natsu No Radio
TTITLE7=Myself - Kaze Ni Naritai
TTITLE8=Justice
TTITLE9=Kaerenai Futari
TTITLE10=Rainy Blue
TTITLE11=Wednesday Moon
EXTD=
EXTT0=
EXTT1=
EXTT2=
EXTT3=
EXTT4=
EXTT5=
EXTT6=
EXTT7=
EXTT8=
EXTT9=
EXTT10=
EXTT11=
PLAYORDER=
